<svg width="305" height="62" viewBox="0 0 305 62" fill="none" xmlns="http://www.w3.org/2000/svg">
<path d="M45.2453 45.6213L41.736 47.8773V24.9413L39.856 25.9276V51.446C39.9563 51.3985 44.6604 48.4622 47 47V17.296L33.3387 24.1893V26.2416L45.2453 20.1787V45.6213Z" fill="url(#paint0_linear_1314_88)"/>
<path d="M28.4507 58.544L26.4453 59.792V32.9627L28.4507 31.9107V58.544Z" fill="url(#paint1_linear_1314_88)"/>
<path d="M31.96 56.36L29.9547 57.608V31.1217L31.96 30.0697V56.36Z" fill="url(#paint2_linear_1314_88)"/>
<path d="M35.2187 54.332C34.5502 54.7289 33.2133 55.5341 33.2133 55.58C33.3136 55.2333 33.2551 37.9904 33.2133 29.4122L35.2187 28.3603V54.332Z" fill="url(#paint3_linear_1314_88)"/>
<path d="M38.4773 52.304L36.472 53.552V27.7028L38.4773 26.6508V52.304Z" fill="url(#paint4_linear_1314_88)"/>
<path d="M0 9.90133V47L7.52 51.705V19.7413L5.13867 18.424V47.752L2.13067 45.9973V13.536L11.0293 18.424V16.2933L0 9.90133Z" fill="url(#paint5_linear_1314_88)"/>
<path d="M11.0293 53.9007V21.6827L8.77333 20.4347V52.4892L11.0293 53.9007Z" fill="url(#paint6_linear_1314_88)"/>
<path d="M24.816 5.56653V30.5813L27.072 29.4326V6.75936L24.816 5.56653Z" fill="url(#paint7_linear_1314_88)"/>
<path d="M30.832 27.518V8.7474L28.4507 7.48831V28.7306L30.832 27.518Z" fill="url(#paint8_linear_1314_88)"/>
<path d="M23.4373 4.83758V61.664L21.3067 60.3309V3.71102L23.4373 4.83758Z" fill="url(#paint9_linear_1314_88)"/>
<path d="M19.928 2.98207V59.4683L17.672 58.0568V1.78924L19.928 2.98207Z" fill="url(#paint10_linear_1314_88)"/>
<path d="M16.4187 1.12656L14.288 0V55.9396L16.4187 57.2727V1.12656Z" fill="url(#paint11_linear_1314_88)"/>
<path d="M78.9617 45.9002V19.9703H85.3637L92.4098 34.3445L99.4157 19.9703H105.777V45.9002H99.2949V31.0026L94.1814 41.4712H90.598L85.4442 31.0026V45.9002H78.9617ZM117.115 45.9002L127.02 19.9703H134.026L143.93 45.9002H137.166L134.831 40.0217H126.174L123.879 45.9002H117.115ZM127.06 35.2303H133.945L130.482 26.2112L127.06 35.2303ZM157.845 45.9002V24.963H150.235V19.9703H171.937V24.963H164.327V45.9002H157.845ZM182.9 45.9002V19.9703H202.026V24.963H189.383V30.3986H200.536V35.4719H189.383V40.9075H202.026V45.9002H182.9ZM212.364 45.9002L222.269 19.9703H229.274L239.179 45.9002H232.415L230.08 40.0217H221.423L219.128 45.9002H212.364ZM222.309 35.2303H229.194L225.731 26.2112L222.309 35.2303ZM249.12 45.9002V42.5986L261.28 25.1241H249.724V19.9703H269.775V23.5941L257.737 40.9075H270.017V45.9002H249.12ZM287.883 45.9002V36.3577L278.582 19.9703H285.347L291.145 30.7207L296.943 19.9703H303.707L294.406 36.3577V45.9002H287.883Z" fill="#0A183B"/>
<defs>
<linearGradient id="paint0_linear_1314_88" x1="23.5" y1="0" x2="23.5" y2="61.664" gradientUnits="userSpaceOnUse">
<stop stop-color="#76CFE7"/>
<stop offset="1" stop-color="#2A4499"/>
</linearGradient>
<linearGradient id="paint1_linear_1314_88" x1="23.5" y1="0" x2="23.5" y2="61.664" gradientUnits="userSpaceOnUse">
<stop stop-color="#76CFE7"/>
<stop offset="1" stop-color="#2A4499"/>
</linearGradient>
<linearGradient id="paint2_linear_1314_88" x1="23.5" y1="0" x2="23.5" y2="61.664" gradientUnits="userSpaceOnUse">
<stop stop-color="#76CFE7"/>
<stop offset="1" stop-color="#2A4499"/>
</linearGradient>
<linearGradient id="paint3_linear_1314_88" x1="23.5" y1="0" x2="23.5" y2="61.664" gradientUnits="userSpaceOnUse">
<stop stop-color="#76CFE7"/>
<stop offset="1" stop-color="#2A4499"/>
</linearGradient>
<linearGradient id="paint4_linear_1314_88" x1="23.5" y1="0" x2="23.5" y2="61.664" gradientUnits="userSpaceOnUse">
<stop stop-color="#76CFE7"/>
<stop offset="1" stop-color="#2A4499"/>
</linearGradient>
<linearGradient id="paint5_linear_1314_88" x1="23.5" y1="0" x2="23.5" y2="61.664" gradientUnits="userSpaceOnUse">
<stop stop-color="#76CFE7"/>
<stop offset="1" stop-color="#2A4499"/>
</linearGradient>
<linearGradient id="paint6_linear_1314_88" x1="23.5" y1="0" x2="23.5" y2="61.664" gradientUnits="userSpaceOnUse">
<stop stop-color="#76CFE7"/>
<stop offset="1" stop-color="#2A4499"/>
</linearGradient>
<linearGradient id="paint7_linear_1314_88" x1="23.5" y1="0" x2="23.5" y2="61.664" gradientUnits="userSpaceOnUse">
<stop stop-color="#76CFE7"/>
<stop offset="1" stop-color="#2A4499"/>
</linearGradient>
<linearGradient id="paint8_linear_1314_88" x1="23.5" y1="0" x2="23.5" y2="61.664" gradientUnits="userSpaceOnUse">
<stop stop-color="#76CFE7"/>
<stop offset="1" stop-color="#2A4499"/>
</linearGradient>
<linearGradient id="paint9_linear_1314_88" x1="23.5" y1="0" x2="23.5" y2="61.664" gradientUnits="userSpaceOnUse">
<stop stop-color="#76CFE7"/>
<stop offset="1" stop-color="#2A4499"/>
</linearGradient>
<linearGradient id="paint10_linear_1314_88" x1="23.5" y1="0" x2="23.5" y2="61.664" gradientUnits="userSpaceOnUse">
<stop stop-color="#76CFE7"/>
<stop offset="1" stop-color="#2A4499"/>
</linearGradient>
<linearGradient id="paint11_linear_1314_88" x1="23.5" y1="0" x2="23.5" y2="61.664" gradientUnits="userSpaceOnUse">
<stop stop-color="#76CFE7"/>
<stop offset="1" stop-color="#2A4499"/>
</linearGradient>
</defs>
</svg>
