<svg width="300" height="300" viewBox="0 0 300 300" fill="none" xmlns="http://www.w3.org/2000/svg">
<path d="M236.5 209L222.5 218V126.5L215 130.434V232.237C215.4 232.047 234.167 220.333 243.5 214.5V96L189 123.5V131.687L236.5 107.5V209Z" fill="url(#paint0_linear_1308_165)"/>
<path d="M169.5 260.553L161.5 265.532V158.5L169.5 154.303V260.553Z" fill="url(#paint1_linear_1308_165)"/>
<path d="M183.5 251.84L175.5 256.819V151.156L183.5 146.959V251.84Z" fill="url(#paint2_linear_1308_165)"/>
<path d="M188.5 248.729C188.5 248.727 188.501 248.724 188.502 248.722C188.899 247.13 188.666 178.504 188.5 144.336L196.5 140.139V243.75C193.862 245.316 188.616 248.476 188.502 248.722C188.501 248.724 188.501 248.727 188.5 248.729Z" fill="url(#paint3_linear_1308_165)"/>
<path d="M209.5 235.66L201.5 240.638V137.516L209.5 133.32V235.66Z" fill="url(#paint4_linear_1308_165)"/>
<path d="M56 66.5V214.5L86 233.27V105.755L76.5 100.5V217.5L64.5 210.5V81L100 100.5V92L56 66.5Z" fill="url(#paint5_linear_1308_165)"/>
<path d="M100 242.029V113.5L91 108.521V236.398L100 242.029Z" fill="url(#paint6_linear_1308_165)"/>
<path d="M155 49.2069V149L164 144.417V53.9655L155 49.2069Z" fill="url(#paint7_linear_1308_165)"/>
<path d="M179 136.779V61.8966L169.5 56.8736V141.617L179 136.779Z" fill="url(#paint8_linear_1308_165)"/>
<path d="M149.5 46.2988V273L141 267.682V41.8046L149.5 46.2988Z" fill="url(#paint9_linear_1308_165)"/>
<path d="M135.5 38.8965V264.241L126.5 258.61V34.1379L135.5 38.8965Z" fill="url(#paint10_linear_1308_165)"/>
<path d="M121.5 31.4943L113 27V250.163L121.5 255.481V31.4943Z" fill="url(#paint11_linear_1308_165)"/>
<defs>
<linearGradient id="paint0_linear_1308_165" x1="149.75" y1="27" x2="149.75" y2="273" gradientUnits="userSpaceOnUse">
<stop stop-color="#76CFE7"/>
<stop offset="1" stop-color="#2A4499"/>
</linearGradient>
<linearGradient id="paint1_linear_1308_165" x1="149.75" y1="27" x2="149.75" y2="273" gradientUnits="userSpaceOnUse">
<stop stop-color="#76CFE7"/>
<stop offset="1" stop-color="#2A4499"/>
</linearGradient>
<linearGradient id="paint2_linear_1308_165" x1="149.75" y1="27" x2="149.75" y2="273" gradientUnits="userSpaceOnUse">
<stop stop-color="#76CFE7"/>
<stop offset="1" stop-color="#2A4499"/>
</linearGradient>
<linearGradient id="paint3_linear_1308_165" x1="149.75" y1="27" x2="149.75" y2="273" gradientUnits="userSpaceOnUse">
<stop stop-color="#76CFE7"/>
<stop offset="1" stop-color="#2A4499"/>
</linearGradient>
<linearGradient id="paint4_linear_1308_165" x1="149.75" y1="27" x2="149.75" y2="273" gradientUnits="userSpaceOnUse">
<stop stop-color="#76CFE7"/>
<stop offset="1" stop-color="#2A4499"/>
</linearGradient>
<linearGradient id="paint5_linear_1308_165" x1="149.75" y1="27" x2="149.75" y2="273" gradientUnits="userSpaceOnUse">
<stop stop-color="#76CFE7"/>
<stop offset="1" stop-color="#2A4499"/>
</linearGradient>
<linearGradient id="paint6_linear_1308_165" x1="149.75" y1="27" x2="149.75" y2="273" gradientUnits="userSpaceOnUse">
<stop stop-color="#76CFE7"/>
<stop offset="1" stop-color="#2A4499"/>
</linearGradient>
<linearGradient id="paint7_linear_1308_165" x1="149.75" y1="27" x2="149.75" y2="273" gradientUnits="userSpaceOnUse">
<stop stop-color="#76CFE7"/>
<stop offset="1" stop-color="#2A4499"/>
</linearGradient>
<linearGradient id="paint8_linear_1308_165" x1="149.75" y1="27" x2="149.75" y2="273" gradientUnits="userSpaceOnUse">
<stop stop-color="#76CFE7"/>
<stop offset="1" stop-color="#2A4499"/>
</linearGradient>
<linearGradient id="paint9_linear_1308_165" x1="149.75" y1="27" x2="149.75" y2="273" gradientUnits="userSpaceOnUse">
<stop stop-color="#76CFE7"/>
<stop offset="1" stop-color="#2A4499"/>
</linearGradient>
<linearGradient id="paint10_linear_1308_165" x1="149.75" y1="27" x2="149.75" y2="273" gradientUnits="userSpaceOnUse">
<stop stop-color="#76CFE7"/>
<stop offset="1" stop-color="#2A4499"/>
</linearGradient>
<linearGradient id="paint11_linear_1308_165" x1="149.75" y1="27" x2="149.75" y2="273" gradientUnits="userSpaceOnUse">
<stop stop-color="#76CFE7"/>
<stop offset="1" stop-color="#2A4499"/>
</linearGradient>
</defs>
</svg>
